<mxfile host="Electron" agent="Mozilla/5.0 (Macintosh; Intel Mac OS X 10_15_7) AppleWebKit/537.36 (KHTML, like Gecko) draw.io/24.7.8 Chrome/128.0.6613.36 Electron/32.0.1 Safari/537.36" version="24.7.8">
  <diagram name="Pagina-1" id="1lT8yuxHTUthxHgMNPtq">
    <mxGraphModel dx="869" dy="550" grid="1" gridSize="10" guides="1" tooltips="1" connect="1" arrows="1" fold="1" page="1" pageScale="1" pageWidth="827" pageHeight="1169" math="0" shadow="0">
      <root>
        <mxCell id="0" />
        <mxCell id="1" parent="0" />
        <mxCell id="X8oTq-pb9E9ul9ol5JQp-12" value="" style="shape=arrow;endArrow=classic;html=1;rounded=0;strokeColor=none;fillColor=#000000;shadow=1;fontFamily=Fira Mono;textShadow=1;" edge="1" parent="1" target="X8oTq-pb9E9ul9ol5JQp-7">
          <mxGeometry width="50" height="50" relative="1" as="geometry">
            <mxPoint x="20" y="460" as="sourcePoint" />
            <mxPoint x="70" y="410" as="targetPoint" />
            <Array as="points">
              <mxPoint x="290" y="460" />
            </Array>
          </mxGeometry>
        </mxCell>
        <mxCell id="X8oTq-pb9E9ul9ol5JQp-13" value="" style="shape=arrow;endArrow=classic;html=1;rounded=0;strokeColor=#000000;fillColor=#000000;shadow=1;fontFamily=Fira Mono;textShadow=1;" edge="1" parent="1" source="X8oTq-pb9E9ul9ol5JQp-7" target="X8oTq-pb9E9ul9ol5JQp-8">
          <mxGeometry width="50" height="50" relative="1" as="geometry">
            <mxPoint x="490" y="390" as="sourcePoint" />
            <mxPoint x="540" y="340" as="targetPoint" />
          </mxGeometry>
        </mxCell>
        <mxCell id="X8oTq-pb9E9ul9ol5JQp-3" value="" style="ellipse;whiteSpace=wrap;html=1;aspect=fixed;fillColor=#FCBF49;strokeColor=#000000;shadow=1;fontFamily=Fira Mono;textShadow=1;" vertex="1" parent="1">
          <mxGeometry x="200" y="440" width="40" height="40" as="geometry" />
        </mxCell>
        <mxCell id="X8oTq-pb9E9ul9ol5JQp-4" value="" style="whiteSpace=wrap;html=1;aspect=fixed;fillColor=#1E90FF;strokeColor=#000000;shadow=1;fontFamily=Fira Mono;textShadow=1;" vertex="1" parent="1">
          <mxGeometry x="40" y="440" width="40" height="40" as="geometry" />
        </mxCell>
        <mxCell id="X8oTq-pb9E9ul9ol5JQp-6" value="" style="triangle;whiteSpace=wrap;html=1;rotation=-90;fillColor=#00A896;strokeColor=#000000;shadow=1;fontFamily=Fira Mono;textShadow=1;" vertex="1" parent="1">
          <mxGeometry x="120" y="440" width="40" height="40" as="geometry" />
        </mxCell>
        <mxCell id="X8oTq-pb9E9ul9ol5JQp-7" value="" style="rounded=1;whiteSpace=wrap;html=1;fillColor=#EAE2B7;strokeColor=#000000;shadow=1;fontFamily=Fira Mono;textShadow=1;" vertex="1" parent="1">
          <mxGeometry x="320" y="420" width="160" height="80" as="geometry" />
        </mxCell>
        <mxCell id="X8oTq-pb9E9ul9ol5JQp-8" value="" style="rounded=1;whiteSpace=wrap;html=1;fillColor=#EAE2B7;strokeColor=#000000;shadow=1;fontFamily=Fira Mono;textShadow=1;" vertex="1" parent="1">
          <mxGeometry x="560" y="420" width="270" height="80" as="geometry" />
        </mxCell>
        <mxCell id="X8oTq-pb9E9ul9ol5JQp-9" value="" style="rounded=1;whiteSpace=wrap;html=1;fillColor=#1E90FF;strokeColor=#000000;shadow=1;fontFamily=Fira Mono;textShadow=1;" vertex="1" parent="1">
          <mxGeometry x="600" y="440" width="40" height="40" as="geometry" />
        </mxCell>
        <mxCell id="X8oTq-pb9E9ul9ol5JQp-10" value="" style="rounded=1;whiteSpace=wrap;html=1;fillColor=#d62828;strokeColor=#000000;shadow=1;fontFamily=Fira Mono;textShadow=1;" vertex="1" parent="1">
          <mxGeometry x="680" y="440" width="40" height="40" as="geometry" />
        </mxCell>
        <mxCell id="X8oTq-pb9E9ul9ol5JQp-11" value="" style="rounded=1;whiteSpace=wrap;html=1;fillColor=#606c38;strokeColor=#000000;shadow=1;fontFamily=Fira Mono;textShadow=1;" vertex="1" parent="1">
          <mxGeometry x="760" y="440" width="40" height="40" as="geometry" />
        </mxCell>
        <mxCell id="X8oTq-pb9E9ul9ol5JQp-16" value="Observable" style="text;html=1;align=center;verticalAlign=middle;whiteSpace=wrap;rounded=0;shadow=1;fontFamily=Fira Mono;textShadow=1;" vertex="1" parent="1">
          <mxGeometry x="340" y="390" width="120" height="30" as="geometry" />
        </mxCell>
        <mxCell id="X8oTq-pb9E9ul9ol5JQp-17" value="Emitted Values" style="text;html=1;align=center;verticalAlign=middle;whiteSpace=wrap;rounded=0;shadow=1;fontFamily=Fira Mono;textShadow=1;" vertex="1" parent="1">
          <mxGeometry x="40" y="400" width="200" height="30" as="geometry" />
        </mxCell>
        <mxCell id="X8oTq-pb9E9ul9ol5JQp-18" value="Observer" style="text;html=1;align=center;verticalAlign=middle;whiteSpace=wrap;rounded=0;shadow=1;fontFamily=Fira Mono;textShadow=1;" vertex="1" parent="1">
          <mxGeometry x="600" y="390" width="200" height="30" as="geometry" />
        </mxCell>
        <mxCell id="X8oTq-pb9E9ul9ol5JQp-19" value="next" style="text;html=1;align=center;verticalAlign=middle;whiteSpace=wrap;rounded=0;shadow=1;fontFamily=Fira Mono;fontSize=10;fontColor=#000000;textShadow=1;" vertex="1" parent="1">
          <mxGeometry x="597.5" y="420" width="45" height="20" as="geometry" />
        </mxCell>
        <mxCell id="X8oTq-pb9E9ul9ol5JQp-20" value="error" style="text;html=1;align=center;verticalAlign=middle;whiteSpace=wrap;rounded=0;shadow=1;fontFamily=Fira Mono;fontSize=10;fontColor=#000000;textShadow=1;" vertex="1" parent="1">
          <mxGeometry x="677.5" y="420" width="45" height="20" as="geometry" />
        </mxCell>
        <mxCell id="X8oTq-pb9E9ul9ol5JQp-21" value="complete" style="text;html=1;align=center;verticalAlign=middle;whiteSpace=wrap;rounded=0;shadow=1;fontFamily=Fira Mono;fontSize=10;fontColor=#000000;textShadow=1;" vertex="1" parent="1">
          <mxGeometry x="757.5" y="420" width="45" height="20" as="geometry" />
        </mxCell>
      </root>
    </mxGraphModel>
  </diagram>
</mxfile>
